<svg width="220" height="180" viewBox="0 0 220 180" fill="none" xmlns="http://www.w3.org/2000/svg">
  <rect x="10" y="12" width="200" height="156" rx="34" fill="#FFF9EF"/>
  <rect x="18" y="20" width="184" height="140" rx="28" fill="url(#paint0_linear)" stroke="#E9DCC7" stroke-width="2"/>
  <path d="M37 48C53 35 84 33 99 43C110 51 126 54 148 51" stroke="#6A93D4" stroke-width="3.2" stroke-linecap="round" stroke-dasharray="4 8"/>
  <path d="M145 47L156 50L149 58" stroke="#6A93D4" stroke-width="3.2" stroke-linecap="round" stroke-linejoin="round"/>
  <circle cx="52" cy="49" r="4" fill="#FFB15D"/>
  <circle cx="63" cy="39" r="3.4" fill="#8EC26A"/>
  <path d="M165 124C170 117 182 117 186 124C191 131 186 142 176 148C165 142 160 131 165 124Z" fill="#F7899A"/>
  <text x="42" y="88" fill="#4D3B39" font-size="25" font-family="Brush Script MT, Snell Roundhand, Comic Sans MS, cursive">Sanjeeta</text>
  <text x="42" y="114" fill="#4D3B39" font-size="18" font-family="Avenir Next, Trebuchet MS, sans-serif" font-weight="700" letter-spacing="0.1em">BHANDARI</text>
  <text x="42" y="136" fill="#6B635F" font-size="11" font-family="Avenir Next, Trebuchet MS, sans-serif" letter-spacing="0.16em">ECT / EDUCATOR</text>
  <defs>
    <linearGradient id="paint0_linear" x1="32" y1="24" x2="188" y2="156" gradientUnits="userSpaceOnUse">
      <stop stop-color="#FFF4D7"/>
      <stop offset="0.52" stop-color="#FFFDF7"/>
      <stop offset="1" stop-color="#FFE6EE"/>
    </linearGradient>
  </defs>
</svg>
